<svg width="309" height="160" viewBox="0 0 309 160" fill="none" xmlns="http://www.w3.org/2000/svg">
<path d="M32.874 56C40.554 56 47.082 53.312 52.554 47.84L46.89 42.272C43.05 46.112 38.442 48.032 32.97 48.032C27.498 48.032 22.794 46.112 18.954 42.176C15.018 38.336 13.098 33.632 13.098 28.16C13.098 22.688 15.018 18.08 18.954 14.144C22.794 10.304 27.498 8.384 32.97 8.384C38.442 8.384 43.05 10.304 46.89 14.24L52.554 8.576C47.082 3.104 40.554 0.415995 32.874 0.415995C29.898 0.415995 26.922 0.896 24.138 1.856C21.354 2.816 18.762 4.16 16.554 5.792C14.25 7.52 12.234 9.536 10.506 11.744C8.778 14.048 7.434 16.64 6.57 19.424C5.61 22.304 5.13 25.28 5.13 28.256C5.13 35.936 7.818 42.464 13.29 47.84C18.666 53.312 25.194 56 32.874 56ZM58.2863 56H66.2543V46.112V31.808V31.712V31.52V31.328V31.232V31.136C66.3503 29.312 66.9263 27.584 67.9823 26.048C69.0383 24.608 70.4783 23.456 72.2063 22.784V14.528C69.6143 15.008 67.2143 16.064 65.1023 17.696C62.9903 19.328 61.3583 21.344 60.1103 23.744C58.8623 26.144 58.2863 28.736 58.2863 31.52V56ZM98.8058 56C103.414 56 107.542 54.656 111.19 51.872L105.526 46.112C103.51 47.36 101.206 48.032 98.8058 48.032C96.9818 48.032 95.2538 47.648 93.6218 46.88C91.9898 46.208 90.5498 45.152 89.3978 43.808C88.1498 42.56 87.2858 41.024 86.7098 39.392H119.158C119.446 37.952 119.638 36.608 119.638 35.168C119.638 29.408 117.622 24.512 113.59 20.384C109.462 16.352 104.566 14.336 98.8058 14.336C93.0458 14.336 88.1498 16.352 84.1178 20.384C79.9898 24.512 77.9738 29.408 77.9738 35.168C77.9738 40.928 79.9898 45.824 84.1178 49.856C88.1498 53.984 93.0458 56 98.8058 56ZM86.5178 31.52C87.2858 28.832 88.8218 26.624 91.1258 24.896C93.3338 23.168 95.9258 22.304 98.8058 22.304C100.246 22.304 101.59 22.496 102.934 22.976C104.278 23.456 105.526 24.032 106.582 24.896C107.638 25.76 108.502 26.72 109.366 27.776C110.134 28.928 110.71 30.176 111.094 31.52H86.5178ZM146.243 56C151.043 56 155.363 54.464 159.107 51.488V56H167.075V14.336H159.107V18.848C155.363 15.872 151.043 14.336 146.243 14.336C140.483 14.336 135.587 16.352 131.555 20.384C127.427 24.512 125.411 29.408 125.411 35.168C125.411 40.928 127.427 45.824 131.555 49.856C135.587 53.984 140.483 56 146.243 56ZM146.243 48.032C142.691 48.032 139.715 46.784 137.219 44.192C134.627 41.696 133.379 38.72 133.379 35.168C133.379 31.616 134.627 28.64 137.219 26.048C139.715 23.552 142.691 22.304 146.243 22.304C149.795 22.304 152.771 23.552 155.363 26.048C157.859 28.64 159.107 31.616 159.107 35.168C159.107 37.472 158.531 39.584 157.379 41.6C156.227 43.616 154.691 45.152 152.675 46.304C150.659 47.456 148.547 48.032 146.243 48.032ZM182.641 56H190.705V22.304H200.593V14.336H190.705V0.415995H182.737V14.336H172.849V22.304H182.641V56ZM206.411 56H214.379V14.336H206.411V56ZM210.347 8.384C211.115 8.384 211.787 8.192 212.459 7.808C213.035 7.52 213.515 7.04 213.899 6.368C214.187 5.792 214.379 5.12 214.379 4.448C214.379 3.392 213.995 2.432 213.227 1.568C212.459 0.799995 211.499 0.415995 210.443 0.415995C209.291 0.415995 208.331 0.799995 207.563 1.568C206.795 2.432 206.411 3.392 206.411 4.448C206.411 5.504 206.795 6.464 207.563 7.232C208.331 8 209.291 8.384 210.347 8.384ZM243.56 56L264.008 14.336H255.176L243.56 37.952L231.944 14.336H223.111L243.56 56ZM283.025 56C287.633 56 291.761 54.656 295.409 51.872L289.745 46.112C287.729 47.36 285.425 48.032 283.025 48.032C281.201 48.032 279.473 47.648 277.841 46.88C276.209 46.208 274.769 45.152 273.617 43.808C272.369 42.56 271.505 41.024 270.929 39.392H303.377C303.665 37.952 303.857 36.608 303.857 35.168C303.857 29.408 301.841 24.512 297.809 20.384C293.681 16.352 288.785 14.336 283.025 14.336C277.265 14.336 272.369 16.352 268.337 20.384C264.209 24.512 262.193 29.408 262.193 35.168C262.193 40.928 264.209 45.824 268.337 49.856C272.369 53.984 277.265 56 283.025 56ZM270.737 31.52C271.505 28.832 273.041 26.624 275.345 24.896C277.553 23.168 280.145 22.304 283.025 22.304C284.465 22.304 285.809 22.496 287.153 22.976C288.497 23.456 289.745 24.032 290.801 24.896C291.857 25.76 292.721 26.72 293.585 27.776C294.353 28.928 294.929 30.176 295.313 31.52H270.737ZM0.301875 160H8.26988V128.32L14.0299 136L32.0779 160L55.8859 128.224V159.904H63.6619V104.512L55.8859 114.976L32.0779 146.752L0.301875 104.416V160ZM90.3214 160C95.1214 160 99.4414 158.464 103.185 155.488V160H111.153V118.336H103.185V122.848C99.4414 119.872 95.1214 118.336 90.3214 118.336C84.5614 118.336 79.6654 120.352 75.6334 124.384C71.5054 128.512 69.4894 133.408 69.4894 139.168C69.4894 144.928 71.5054 149.824 75.6334 153.856C79.6654 157.984 84.5614 160 90.3214 160ZM90.3214 152.032C86.7694 152.032 83.7934 150.784 81.2974 148.192C78.7054 145.696 77.4574 142.72 77.4574 139.168C77.4574 135.616 78.7054 132.64 81.2974 130.048C83.7934 127.552 86.7694 126.304 90.3214 126.304C93.8734 126.304 96.8494 127.552 99.4414 130.048C101.937 132.64 103.185 135.616 103.185 139.168C103.185 141.472 102.609 143.584 101.457 145.6C100.305 147.616 98.7694 149.152 96.7534 150.304C94.7374 151.456 92.6254 152.032 90.3214 152.032ZM137.759 160C143.519 160 148.415 157.984 152.447 153.856L146.879 148.288C144.287 150.784 141.311 152.032 137.759 152.032C134.207 152.032 131.231 150.784 128.735 148.192C126.143 145.696 124.895 142.72 124.895 139.168C124.895 135.616 126.143 132.64 128.735 130.048C131.231 127.552 134.207 126.304 137.759 126.304C141.311 126.304 144.287 127.552 146.879 130.048L152.447 124.48C148.415 120.352 143.519 118.336 137.759 118.336C131.999 118.336 127.103 120.352 123.071 124.384C118.943 128.512 116.927 133.408 116.927 139.168C116.927 144.928 118.943 149.824 123.071 153.856C127.103 157.984 131.999 160 137.759 160ZM158.271 160H166.239V139.168C166.239 135.616 167.487 132.64 170.079 130.048C172.575 127.552 175.551 126.304 179.103 126.304C182.655 126.304 185.631 127.552 188.223 130.048C190.719 132.64 191.967 135.616 191.967 139.168V160H199.935V139.168C199.935 133.408 197.919 128.512 193.887 124.384C189.759 120.352 184.863 118.336 179.103 118.336C174.303 118.336 169.983 119.872 166.239 122.848V104.416H158.271V160ZM205.802 160H213.77V118.336H205.802V160ZM209.738 112.384C210.506 112.384 211.178 112.192 211.85 111.808C212.426 111.52 212.906 111.04 213.29 110.368C213.578 109.792 213.77 109.12 213.77 108.448C213.77 107.392 213.386 106.432 212.618 105.568C211.85 104.8 210.89 104.416 209.834 104.416C208.682 104.416 207.722 104.8 206.954 105.568C206.186 106.432 205.802 107.392 205.802 108.448C205.802 109.504 206.186 110.464 206.954 111.232C207.722 112 208.682 112.384 209.738 112.384ZM219.489 160H227.457V139.168C227.457 135.616 228.705 132.64 231.297 130.048C233.793 127.552 236.769 126.304 240.321 126.304C243.873 126.304 246.849 127.552 249.441 130.048C251.937 132.64 253.185 135.616 253.185 139.168V160H261.153V139.168C261.153 135.424 260.193 131.872 258.369 128.704C256.545 125.536 253.953 122.944 250.785 121.12C247.617 119.296 244.065 118.336 240.321 118.336C234.561 118.336 229.665 120.352 225.633 124.384C221.505 128.512 219.489 133.408 219.489 139.168V160ZM287.853 160C292.461 160 296.589 158.656 300.237 155.872L294.573 150.112C292.557 151.36 290.253 152.032 287.853 152.032C286.029 152.032 284.301 151.648 282.669 150.88C281.037 150.208 279.597 149.152 278.445 147.808C277.197 146.56 276.333 145.024 275.757 143.392H308.205C308.493 141.952 308.685 140.608 308.685 139.168C308.685 133.408 306.669 128.512 302.637 124.384C298.509 120.352 293.613 118.336 287.853 118.336C282.093 118.336 277.197 120.352 273.165 124.384C269.037 128.512 267.021 133.408 267.021 139.168C267.021 144.928 269.037 149.824 273.165 153.856C277.197 157.984 282.093 160 287.853 160ZM275.565 135.52C276.333 132.832 277.869 130.624 280.173 128.896C282.381 127.168 284.973 126.304 287.853 126.304C289.293 126.304 290.637 126.496 291.981 126.976C293.325 127.456 294.573 128.032 295.629 128.896C296.685 129.76 297.549 130.72 298.413 131.776C299.181 132.928 299.757 134.176 300.141 135.52H275.565Z" fill="white"/>
</svg>
