<svg width="353" height="168" viewBox="0 0 353 168" fill="none" xmlns="http://www.w3.org/2000/svg">
<path d="M9.90688 54.64C3.66688 48.4 0.546875 40.8533 0.546875 32C0.546875 23.1467 3.66688 15.6 9.90688 9.36C16.1469 3.12 23.6935 -1.90735e-06 32.5469 -1.90735e-06C41.4002 -1.90735e-06 48.9469 3.12 55.1869 9.36L49.5069 15.04C44.8135 10.3467 39.1602 8 32.5469 8C25.9335 8 20.2802 10.3467 15.5869 15.04C10.8935 19.7333 8.54688 25.3867 8.54688 32C8.54688 38.6133 10.8935 44.2667 15.5869 48.96C20.2802 53.6533 25.9335 56 32.5469 56C39.2669 56 44.9469 53.6267 49.5869 48.88L55.2669 54.56C49.0802 60.8533 41.5069 64 32.5469 64C23.6935 64 16.1469 60.88 9.90688 54.64ZM62.9844 64V16H70.9844V22.48C75.411 18.16 80.7444 16 86.9844 16V24C82.611 24 78.851 25.5733 75.7044 28.72C72.5577 31.8667 70.9844 35.6267 70.9844 40V64H62.9844ZM103.433 36H134.473C133.566 32.5333 131.673 29.68 128.793 27.44C125.913 25.1467 122.633 24 118.953 24C115.273 24 111.993 25.1467 109.113 27.44C106.233 29.68 104.34 32.5333 103.433 36ZM101.993 56.96C97.2998 52.2667 94.9531 46.6133 94.9531 40C94.9531 33.3867 97.2998 27.7333 101.993 23.04C106.686 18.3467 112.34 16 118.953 16C125.566 16 131.22 18.3467 135.913 23.04C140.606 27.7333 142.953 33.3867 142.953 40V44H103.433C104.34 47.4667 106.233 50.3467 109.113 52.64C111.993 54.88 115.273 56 118.953 56C123.326 56 127.086 54.4267 130.233 51.28L135.913 56.96C131.22 61.6533 125.566 64 118.953 64C112.34 64 106.686 61.6533 101.993 56.96ZM160.682 45.76C159.509 46.9333 158.922 48.3467 158.922 50C158.922 51.6533 159.509 53.0667 160.682 54.24C161.909 55.4133 163.349 56 165.002 56H168.522C172.202 56 175.482 54.88 178.362 52.64C181.242 50.3467 183.135 47.4667 184.042 44H165.002C163.349 44 161.909 44.5867 160.682 45.76ZM155.002 59.92C152.282 57.2 150.922 53.8933 150.922 50C150.922 46.1067 152.282 42.8 155.002 40.08C157.722 37.36 161.029 36 164.922 36H184.042C183.135 32.5333 181.242 29.68 178.362 27.44C175.482 25.1467 172.202 24 168.522 24C164.202 24 160.469 25.52 157.322 28.56L151.722 22.88C156.415 18.2933 162.015 16 168.522 16C175.135 16 180.789 18.3467 185.482 23.04C190.175 27.7333 192.522 33.3867 192.522 40V64H184.522V57.12C180.255 61.7067 174.922 64 168.522 64H164.922C161.029 64 157.722 62.64 155.002 59.92ZM200.516 24V16H208.516V-1.90735e-06H216.516V16H224.516V24H216.516V64H208.516V24H200.516ZM232.484 64V16H240.484V64H232.484ZM232.484 8V-1.90735e-06H240.484V8H232.484ZM248.516 16H256.516L272.516 55.2L288.516 16H296.516L276.516 64H268.516L248.516 16ZM312.964 36H344.004C343.098 32.5333 341.204 29.68 338.324 27.44C335.444 25.1467 332.164 24 328.484 24C324.804 24 321.524 25.1467 318.644 27.44C315.764 29.68 313.871 32.5333 312.964 36ZM311.524 56.96C306.831 52.2667 304.484 46.6133 304.484 40C304.484 33.3867 306.831 27.7333 311.524 23.04C316.218 18.3467 321.871 16 328.484 16C335.098 16 340.751 18.3467 345.444 23.04C350.138 27.7333 352.484 33.3867 352.484 40V44H312.964C313.871 47.4667 315.764 50.3467 318.644 52.64C321.524 54.88 324.804 56 328.484 56C332.858 56 336.618 54.4267 339.764 51.28L345.444 56.96C340.751 61.6533 335.098 64 328.484 64C321.871 64 316.218 61.6533 311.524 56.96ZM3.3125 168V104H12.9125L35.3125 150.4L57.7125 104H67.3125V168H59.3125V118.4L39.3125 160H31.3125L11.3125 118.4V168H3.3125ZM85.0725 149.76C83.8992 150.933 83.3125 152.347 83.3125 154C83.3125 155.653 83.8992 157.067 85.0725 158.24C86.2992 159.413 87.7392 160 89.3925 160H92.9125C96.5925 160 99.8725 158.88 102.753 156.64C105.633 154.347 107.526 151.467 108.433 148H89.3925C87.7392 148 86.2992 148.587 85.0725 149.76ZM79.3925 163.92C76.6725 161.2 75.3125 157.893 75.3125 154C75.3125 150.107 76.6725 146.8 79.3925 144.08C82.1125 141.36 85.4192 140 89.3125 140H108.433C107.526 136.533 105.633 133.68 102.753 131.44C99.8725 129.147 96.5925 128 92.9125 128C88.5925 128 84.8592 129.52 81.7125 132.56L76.1125 126.88C80.8058 122.293 86.4058 120 92.9125 120C99.5258 120 105.179 122.347 109.873 127.04C114.566 131.733 116.913 137.387 116.913 144V168H108.913V161.12C104.646 165.707 99.3125 168 92.9125 168H89.3125C85.4192 168 82.1125 166.64 79.3925 163.92ZM131.946 160.96C127.253 156.267 124.906 150.613 124.906 144C124.906 137.387 127.253 131.733 131.946 127.04C136.64 122.347 142.293 120 148.906 120C155.52 120 161.173 122.347 165.866 127.04L160.186 132.72C157.04 129.573 153.28 128 148.906 128C144.533 128 140.773 129.573 137.626 132.72C134.48 135.867 132.906 139.627 132.906 144C132.906 148.373 134.48 152.133 137.626 155.28C140.773 158.427 144.533 160 148.906 160C153.226 160 156.96 158.48 160.106 155.44L165.706 161.12C161.013 165.707 155.413 168 148.906 168C142.293 168 136.64 165.653 131.946 160.96ZM173.75 168V104H181.75V126.48C186.177 122.16 191.51 120 197.75 120C204.363 120 210.017 122.347 214.71 127.04C219.403 131.733 221.75 137.387 221.75 144V168H213.75V144C213.75 139.627 212.177 135.867 209.03 132.72C205.883 129.573 202.123 128 197.75 128C193.377 128 189.617 129.573 186.47 132.72C183.323 135.867 181.75 139.627 181.75 144V168H173.75ZM229.719 168V120H237.719V168H229.719ZM229.719 112V104H237.719V112H229.719ZM245.75 168V120H253.75V126.48C258.177 122.16 263.51 120 269.75 120C276.363 120 282.017 122.347 286.71 127.04C291.403 131.733 293.75 137.387 293.75 144V168H285.75V144C285.75 139.627 284.177 135.867 281.03 132.72C277.883 129.573 274.123 128 269.75 128C265.377 128 261.617 129.573 258.47 132.72C255.323 135.867 253.75 139.627 253.75 144V168H245.75ZM310.199 140H341.239C340.332 136.533 338.439 133.68 335.559 131.44C332.679 129.147 329.399 128 325.719 128C322.039 128 318.759 129.147 315.879 131.44C312.999 133.68 311.105 136.533 310.199 140ZM308.759 160.96C304.065 156.267 301.719 150.613 301.719 144C301.719 137.387 304.065 131.733 308.759 127.04C313.452 122.347 319.105 120 325.719 120C332.332 120 337.985 122.347 342.679 127.04C347.372 131.733 349.719 137.387 349.719 144V148H310.199C311.105 151.467 312.999 154.347 315.879 156.64C318.759 158.88 322.039 160 325.719 160C330.092 160 333.852 158.427 336.999 155.28L342.679 160.96C337.985 165.653 332.332 168 325.719 168C319.105 168 313.452 165.653 308.759 160.96Z" fill="#8684FF"/>
<path d="M9.90688 54.64C3.66688 48.4 0.546875 40.8533 0.546875 32C0.546875 23.1467 3.66688 15.6 9.90688 9.36C16.1469 3.12 23.6935 -1.90735e-06 32.5469 -1.90735e-06C41.4002 -1.90735e-06 48.9469 3.12 55.1869 9.36L49.5069 15.04C44.8135 10.3467 39.1602 8 32.5469 8C25.9335 8 20.2802 10.3467 15.5869 15.04C10.8935 19.7333 8.54688 25.3867 8.54688 32C8.54688 38.6133 10.8935 44.2667 15.5869 48.96C20.2802 53.6533 25.9335 56 32.5469 56C39.2669 56 44.9469 53.6267 49.5869 48.88L55.2669 54.56C49.0802 60.8533 41.5069 64 32.5469 64C23.6935 64 16.1469 60.88 9.90688 54.64ZM62.9844 64V16H70.9844V22.48C75.411 18.16 80.7444 16 86.9844 16V24C82.611 24 78.851 25.5733 75.7044 28.72C72.5577 31.8667 70.9844 35.6267 70.9844 40V64H62.9844ZM103.433 36H134.473C133.566 32.5333 131.673 29.68 128.793 27.44C125.913 25.1467 122.633 24 118.953 24C115.273 24 111.993 25.1467 109.113 27.44C106.233 29.68 104.34 32.5333 103.433 36ZM101.993 56.96C97.2998 52.2667 94.9531 46.6133 94.9531 40C94.9531 33.3867 97.2998 27.7333 101.993 23.04C106.686 18.3467 112.34 16 118.953 16C125.566 16 131.22 18.3467 135.913 23.04C140.606 27.7333 142.953 33.3867 142.953 40V44H103.433C104.34 47.4667 106.233 50.3467 109.113 52.64C111.993 54.88 115.273 56 118.953 56C123.326 56 127.086 54.4267 130.233 51.28L135.913 56.96C131.22 61.6533 125.566 64 118.953 64C112.34 64 106.686 61.6533 101.993 56.96ZM160.682 45.76C159.509 46.9333 158.922 48.3467 158.922 50C158.922 51.6533 159.509 53.0667 160.682 54.24C161.909 55.4133 163.349 56 165.002 56H168.522C172.202 56 175.482 54.88 178.362 52.64C181.242 50.3467 183.135 47.4667 184.042 44H165.002C163.349 44 161.909 44.5867 160.682 45.76ZM155.002 59.92C152.282 57.2 150.922 53.8933 150.922 50C150.922 46.1067 152.282 42.8 155.002 40.08C157.722 37.36 161.029 36 164.922 36H184.042C183.135 32.5333 181.242 29.68 178.362 27.44C175.482 25.1467 172.202 24 168.522 24C164.202 24 160.469 25.52 157.322 28.56L151.722 22.88C156.415 18.2933 162.015 16 168.522 16C175.135 16 180.789 18.3467 185.482 23.04C190.175 27.7333 192.522 33.3867 192.522 40V64H184.522V57.12C180.255 61.7067 174.922 64 168.522 64H164.922C161.029 64 157.722 62.64 155.002 59.92ZM200.516 24V16H208.516V-1.90735e-06H216.516V16H224.516V24H216.516V64H208.516V24H200.516ZM232.484 64V16H240.484V64H232.484ZM232.484 8V-1.90735e-06H240.484V8H232.484ZM248.516 16H256.516L272.516 55.2L288.516 16H296.516L276.516 64H268.516L248.516 16ZM312.964 36H344.004C343.098 32.5333 341.204 29.68 338.324 27.44C335.444 25.1467 332.164 24 328.484 24C324.804 24 321.524 25.1467 318.644 27.44C315.764 29.68 313.871 32.5333 312.964 36ZM311.524 56.96C306.831 52.2667 304.484 46.6133 304.484 40C304.484 33.3867 306.831 27.7333 311.524 23.04C316.218 18.3467 321.871 16 328.484 16C335.098 16 340.751 18.3467 345.444 23.04C350.138 27.7333 352.484 33.3867 352.484 40V44H312.964C313.871 47.4667 315.764 50.3467 318.644 52.64C321.524 54.88 324.804 56 328.484 56C332.858 56 336.618 54.4267 339.764 51.28L345.444 56.96C340.751 61.6533 335.098 64 328.484 64C321.871 64 316.218 61.6533 311.524 56.96ZM3.3125 168V104H12.9125L35.3125 150.4L57.7125 104H67.3125V168H59.3125V118.4L39.3125 160H31.3125L11.3125 118.4V168H3.3125ZM85.0725 149.76C83.8992 150.933 83.3125 152.347 83.3125 154C83.3125 155.653 83.8992 157.067 85.0725 158.24C86.2992 159.413 87.7392 160 89.3925 160H92.9125C96.5925 160 99.8725 158.88 102.753 156.64C105.633 154.347 107.526 151.467 108.433 148H89.3925C87.7392 148 86.2992 148.587 85.0725 149.76ZM79.3925 163.92C76.6725 161.2 75.3125 157.893 75.3125 154C75.3125 150.107 76.6725 146.8 79.3925 144.08C82.1125 141.36 85.4192 140 89.3125 140H108.433C107.526 136.533 105.633 133.68 102.753 131.44C99.8725 129.147 96.5925 128 92.9125 128C88.5925 128 84.8592 129.52 81.7125 132.56L76.1125 126.88C80.8058 122.293 86.4058 120 92.9125 120C99.5258 120 105.179 122.347 109.873 127.04C114.566 131.733 116.913 137.387 116.913 144V168H108.913V161.12C104.646 165.707 99.3125 168 92.9125 168H89.3125C85.4192 168 82.1125 166.64 79.3925 163.92ZM131.946 160.96C127.253 156.267 124.906 150.613 124.906 144C124.906 137.387 127.253 131.733 131.946 127.04C136.64 122.347 142.293 120 148.906 120C155.52 120 161.173 122.347 165.866 127.04L160.186 132.72C157.04 129.573 153.28 128 148.906 128C144.533 128 140.773 129.573 137.626 132.72C134.48 135.867 132.906 139.627 132.906 144C132.906 148.373 134.48 152.133 137.626 155.28C140.773 158.427 144.533 160 148.906 160C153.226 160 156.96 158.48 160.106 155.44L165.706 161.12C161.013 165.707 155.413 168 148.906 168C142.293 168 136.64 165.653 131.946 160.96ZM173.75 168V104H181.75V126.48C186.177 122.16 191.51 120 197.75 120C204.363 120 210.017 122.347 214.71 127.04C219.403 131.733 221.75 137.387 221.75 144V168H213.75V144C213.75 139.627 212.177 135.867 209.03 132.72C205.883 129.573 202.123 128 197.75 128C193.377 128 189.617 129.573 186.47 132.72C183.323 135.867 181.75 139.627 181.75 144V168H173.75ZM229.719 168V120H237.719V168H229.719ZM229.719 112V104H237.719V112H229.719ZM245.75 168V120H253.75V126.48C258.177 122.16 263.51 120 269.75 120C276.363 120 282.017 122.347 286.71 127.04C291.403 131.733 293.75 137.387 293.75 144V168H285.75V144C285.75 139.627 284.177 135.867 281.03 132.72C277.883 129.573 274.123 128 269.75 128C265.377 128 261.617 129.573 258.47 132.72C255.323 135.867 253.75 139.627 253.75 144V168H245.75ZM310.199 140H341.239C340.332 136.533 338.439 133.68 335.559 131.44C332.679 129.147 329.399 128 325.719 128C322.039 128 318.759 129.147 315.879 131.44C312.999 133.68 311.105 136.533 310.199 140ZM308.759 160.96C304.065 156.267 301.719 150.613 301.719 144C301.719 137.387 304.065 131.733 308.759 127.04C313.452 122.347 319.105 120 325.719 120C332.332 120 337.985 122.347 342.679 127.04C347.372 131.733 349.719 137.387 349.719 144V148H310.199C311.105 151.467 312.999 154.347 315.879 156.64C318.759 158.88 322.039 160 325.719 160C330.092 160 333.852 158.427 336.999 155.28L342.679 160.96C337.985 165.653 332.332 168 325.719 168C319.105 168 313.452 165.653 308.759 160.96Z" fill="white"/>
</svg>
