<svg width="739" height="64" viewBox="0 0 739 64" fill="none" xmlns="http://www.w3.org/2000/svg">
<path d="M9.735 54.64C3.495 48.4 0.375 40.8533 0.375 32C0.375 23.1467 3.495 15.6 9.735 9.36C15.975 3.12 23.5217 -1.90735e-06 32.375 -1.90735e-06C41.2283 -1.90735e-06 48.775 3.12 55.015 9.36L49.335 15.04C44.6417 10.3467 38.9883 8 32.375 8C25.7617 8 20.1083 10.3467 15.415 15.04C10.7217 19.7333 8.375 25.3867 8.375 32C8.375 38.6133 10.7217 44.2667 15.415 48.96C20.1083 53.6533 25.7617 56 32.375 56C39.095 56 44.775 53.6267 49.415 48.88L55.095 54.56C48.9083 60.8533 41.335 64 32.375 64C23.5217 64 15.975 60.88 9.735 54.64ZM62.8125 64V16H70.8125V22.48C75.2392 18.16 80.5725 16 86.8125 16V24C82.4392 24 78.6792 25.5733 75.5325 28.72C72.3858 31.8667 70.8125 35.6267 70.8125 40V64H62.8125ZM103.261 36H134.301C133.395 32.5333 131.501 29.68 128.621 27.44C125.741 25.1467 122.461 24 118.781 24C115.101 24 111.821 25.1467 108.941 27.44C106.061 29.68 104.168 32.5333 103.261 36ZM101.821 56.96C97.1279 52.2667 94.7813 46.6133 94.7813 40C94.7813 33.3867 97.1279 27.7333 101.821 23.04C106.515 18.3467 112.168 16 118.781 16C125.395 16 131.048 18.3467 135.741 23.04C140.435 27.7333 142.781 33.3867 142.781 40V44H103.261C104.168 47.4667 106.061 50.3467 108.941 52.64C111.821 54.88 115.101 56 118.781 56C123.155 56 126.915 54.4267 130.061 51.28L135.741 56.96C131.048 61.6533 125.395 64 118.781 64C112.168 64 106.515 61.6533 101.821 56.96ZM160.51 45.76C159.337 46.9333 158.75 48.3467 158.75 50C158.75 51.6533 159.337 53.0667 160.51 54.24C161.737 55.4133 163.177 56 164.83 56H168.35C172.03 56 175.31 54.88 178.19 52.64C181.07 50.3467 182.963 47.4667 183.87 44H164.83C163.177 44 161.737 44.5867 160.51 45.76ZM154.83 59.92C152.11 57.2 150.75 53.8933 150.75 50C150.75 46.1067 152.11 42.8 154.83 40.08C157.55 37.36 160.857 36 164.75 36H183.87C182.963 32.5333 181.07 29.68 178.19 27.44C175.31 25.1467 172.03 24 168.35 24C164.03 24 160.297 25.52 157.15 28.56L151.55 22.88C156.243 18.2933 161.843 16 168.35 16C174.963 16 180.617 18.3467 185.31 23.04C190.003 27.7333 192.35 33.3867 192.35 40V64H184.35V57.12C180.083 61.7067 174.75 64 168.35 64H164.75C160.857 64 157.55 62.64 154.83 59.92ZM200.344 24V16H208.344V-1.90735e-06H216.344V16H224.344V24H216.344V64H208.344V24H200.344ZM232.313 64V16H240.312V64H232.313ZM232.313 8V-1.90735e-06H240.312V8H232.313ZM248.344 16H256.344L272.344 55.2L288.344 16H296.344L276.344 64H268.344L248.344 16ZM312.793 36H343.833C342.926 32.5333 341.033 29.68 338.153 27.44C335.273 25.1467 331.993 24 328.313 24C324.633 24 321.352 25.1467 318.472 27.44C315.592 29.68 313.699 32.5333 312.793 36ZM311.353 56.96C306.659 52.2667 304.313 46.6133 304.313 40C304.313 33.3867 306.659 27.7333 311.353 23.04C316.046 18.3467 321.699 16 328.313 16C334.926 16 340.579 18.3467 345.273 23.04C349.966 27.7333 352.313 33.3867 352.313 40V44H312.793C313.699 47.4667 315.592 50.3467 318.472 52.64C321.352 54.88 324.633 56 328.313 56C332.686 56 336.446 54.4267 339.592 51.28L345.273 56.96C340.579 61.6533 334.926 64 328.313 64C321.699 64 316.046 61.6533 311.353 56.96ZM392.25 64V-1.90735e-06H401.85L424.25 46.4L446.65 -1.90735e-06H456.25V64H448.25V14.4L428.25 56H420.25L400.25 14.4V64H392.25ZM474.01 45.76C472.837 46.9333 472.25 48.3467 472.25 50C472.25 51.6533 472.837 53.0667 474.01 54.24C475.237 55.4133 476.677 56 478.33 56H481.85C485.53 56 488.81 54.88 491.69 52.64C494.57 50.3467 496.463 47.4667 497.37 44H478.33C476.677 44 475.237 44.5867 474.01 45.76ZM468.33 59.92C465.61 57.2 464.25 53.8933 464.25 50C464.25 46.1067 465.61 42.8 468.33 40.08C471.05 37.36 474.357 36 478.25 36H497.37C496.463 32.5333 494.57 29.68 491.69 27.44C488.81 25.1467 485.53 24 481.85 24C477.53 24 473.797 25.52 470.65 28.56L465.05 22.88C469.743 18.2933 475.343 16 481.85 16C488.463 16 494.117 18.3467 498.81 23.04C503.503 27.7333 505.85 33.3867 505.85 40V64H497.85V57.12C493.583 61.7067 488.25 64 481.85 64H478.25C474.357 64 471.05 62.64 468.33 59.92ZM520.884 56.96C516.19 52.2667 513.844 46.6133 513.844 40C513.844 33.3867 516.19 27.7333 520.884 23.04C525.577 18.3467 531.23 16 537.844 16C544.457 16 550.11 18.3467 554.804 23.04L549.124 28.72C545.977 25.5733 542.217 24 537.844 24C533.47 24 529.71 25.5733 526.564 28.72C523.417 31.8667 521.844 35.6267 521.844 40C521.844 44.3733 523.417 48.1333 526.564 51.28C529.71 54.4267 533.47 56 537.844 56C542.164 56 545.897 54.48 549.044 51.44L554.644 57.12C549.95 61.7067 544.35 64 537.844 64C531.23 64 525.577 61.6533 520.884 56.96ZM562.688 64V-1.90735e-06H570.688V22.48C575.114 18.16 580.448 16 586.688 16C593.301 16 598.954 18.3467 603.648 23.04C608.341 27.7333 610.688 33.3867 610.688 40V64H602.688V40C602.688 35.6267 601.114 31.8667 597.967 28.72C594.821 25.5733 591.061 24 586.688 24C582.314 24 578.554 25.5733 575.407 28.72C572.261 31.8667 570.688 35.6267 570.688 40V64H562.688ZM618.656 64V16H626.656V64H618.656ZM618.656 8V-1.90735e-06H626.656V8H618.656ZM634.688 64V16H642.688V22.48C647.114 18.16 652.448 16 658.688 16C665.301 16 670.954 18.3467 675.648 23.04C680.341 27.7333 682.688 33.3867 682.688 40V64H674.688V40C674.688 35.6267 673.114 31.8667 669.967 28.72C666.821 25.5733 663.061 24 658.688 24C654.314 24 650.554 25.5733 647.407 28.72C644.261 31.8667 642.688 35.6267 642.688 40V64H634.688ZM699.136 36H730.176C729.27 32.5333 727.376 29.68 724.496 27.44C721.616 25.1467 718.336 24 714.656 24C710.976 24 707.696 25.1467 704.816 27.44C701.936 29.68 700.043 32.5333 699.136 36ZM697.696 56.96C693.003 52.2667 690.656 46.6133 690.656 40C690.656 33.3867 693.003 27.7333 697.696 23.04C702.39 18.3467 708.043 16 714.656 16C721.27 16 726.923 18.3467 731.616 23.04C736.31 27.7333 738.656 33.3867 738.656 40V44H699.136C700.043 47.4667 701.936 50.3467 704.816 52.64C707.696 54.88 710.976 56 714.656 56C719.03 56 722.79 54.4267 725.936 51.28L731.616 56.96C726.923 61.6533 721.27 64 714.656 64C708.043 64 702.39 61.6533 697.696 56.96Z" fill="black"/>
</svg>
